<?xml version="1.0" encoding="UTF-8"?>
<svg width="384px" height="219px" viewBox="0 0 384 219" version="1.1" xmlns="http://www.w3.org/2000/svg" xmlns:xlink="http://www.w3.org/1999/xlink">
    <title>Frame</title>
    <g id="Frame" stroke="none" fill="none" fill-rule="evenodd" stroke-width="1">
        <g id="Group" transform="translate(40, 40)">
            <path d="M155.094,109.281689 L164.479124,125.537525 C165.041212,126.511091 165.575299,127.424292 166.084656,128.282594 L77.5,128.282032 C72.2532949,128.282032 68,124.028737 68,118.782032 C68,113.535327 72.2532949,109.282032 77.5,109.282032 L155.094,109.281689 Z M138.725,76.2816886 L138.777274,76.5365208 C139.788769,81.2789828 141.311379,85.3289924 147.012856,95.2816874 L63.5,95.2820323 C58.2532949,95.2820323 54,91.0287374 54,85.7820323 C54,80.5353272 58.2532949,76.2820323 63.5,76.2820323 L138.725,76.2816886 Z M147.012412,43.2831536 C141.3113,53.2352829 139.788742,57.2852051 138.777274,62.0275438 C138.759129,62.1126197 138.7413,62.1976555 138.723787,62.2826525 L34.5,62.2820323 C29.2532949,62.2820323 25,58.0287374 25,52.7820323 C25,47.5353272 29.2532949,43.2820323 34.5,43.2820323 Z M166.085121,10.2806886 C165.575624,11.1392173 165.041383,12.0526778 164.479124,13.0265398 L155.093,29.2816886 L71.5,29.2820323 C66.2532949,29.2820323 62,25.0287374 62,19.7820323 C62,14.5353272 66.2532949,10.2820323 71.5,10.2820323 Z" id="Combined-Shape" fill="color(display-p3 0.000 0.000 0.000)"></path>
            <path d="M261.71214,1.45769584 C264.798439,2.45811901 267.471987,4.00169268 269.881529,6.17429468 C272.29107,8.34689668 274.111761,10.5858812 278.091097,17.4782927 L297.908903,51.8037396 C301.888239,58.6961511 302.91691,61.3924083 303.593668,64.5654335 C304.270426,67.7384586 304.270426,70.825606 303.593668,73.9986311 C302.91691,77.1716563 301.888239,79.8679135 297.908903,86.760325 L278.091097,121.085772 C274.111761,127.978183 272.29107,130.217168 269.881529,132.38977 C267.471987,134.562372 264.798439,136.105946 261.71214,137.106369 C258.62584,138.106792 255.776477,138.564065 247.817806,138.564065 L208.182194,138.564065 C200.223523,138.564065 197.37416,138.106792 194.28786,137.106369 C191.201561,136.105946 188.528013,134.562372 186.118471,132.38977 C186.020123,132.301092 185.922755,132.212304 185.826182,132.123093 L185.538657,131.853882 C183.397289,129.82061 181.563395,127.415538 177.908903,121.085772 L158.091097,86.760325 C154.111761,79.8679135 153.08309,77.1716563 152.406332,73.9986311 C151.729574,70.825606 151.729574,67.7384586 152.406332,64.5654335 C153.08309,61.3924083 154.111761,58.6961511 158.091097,51.8037396 L177.908903,17.4782927 C181.563395,11.148527 183.397289,8.7434551 185.538657,6.71018289 L185.826182,6.44097127 C185.922755,6.35176054 186.020123,6.26297231 186.118471,6.17429468 C188.528013,4.00169268 191.201561,2.45811901 194.28786,1.45769584 C197.311174,0.477689469 200.107123,0.0188904091 207.701267,0.000572082723 L247.817806,-3.55271368e-14 C255.776477,-3.55271368e-14 258.62584,0.45727267 261.71214,1.45769584 Z M248.5,101.282032 C243.253295,101.282032 239,105.535327 239,110.782032 C239,116.028737 243.253295,120.282032 248.5,120.282032 C253.746705,120.282032 258,116.028737 258,110.782032 C258,105.535327 253.746705,101.282032 248.5,101.282032 Z M204.5,79.2820323 C199.253295,79.2820323 195,83.5353272 195,88.7820323 C195,94.0287374 199.253295,98.2820323 204.5,98.2820323 C209.746705,98.2820323 214,94.0287374 214,88.7820323 C214,83.5353272 209.746705,79.2820323 204.5,79.2820323 Z M234.5,56.2820323 C229.253295,56.2820323 225,60.5353272 225,65.7820323 C225,71.0287374 229.253295,75.2820323 234.5,75.2820323 C239.746705,75.2820323 244,71.0287374 244,65.7820323 C244,60.5353272 239.746705,56.2820323 234.5,56.2820323 Z M223.5,18.2820323 C218.253295,18.2820323 214,22.5353272 214,27.7820323 C214,33.0287374 218.253295,37.2820323 223.5,37.2820323 C228.746705,37.2820323 233,33.0287374 233,27.7820323 C233,22.5353272 228.746705,18.2820323 223.5,18.2820323 Z" id="Combined-Shape" fill="color(display-p3 0.988 0.318 0.188)"></path>
            <path d="M9.5,42.2820323 C14.7467051,42.2820323 19,46.5353272 19,51.7820323 C19,57.0287374 14.7467051,61.2820323 9.5,61.2820323 C4.25329488,61.2820323 0,57.0287374 0,51.7820323 C0,46.5353272 4.25329488,42.2820323 9.5,42.2820323 Z" id="Rectangle" fill="color(display-p3 0.188 0.737 0.929)"></path>
            <path d="M39.5,76.2820323 C44.7467051,76.2820323 49,80.5353272 49,85.7820323 C49,91.0287374 44.7467051,95.2820323 39.5,95.2820323 C34.2532949,95.2820323 30,91.0287374 30,85.7820323 C30,80.5353272 34.2532949,76.2820323 39.5,76.2820323 Z" id="Rectangle" fill="color(display-p3 0.000 0.000 0.000)"></path>
            <path d="M52.5,109.282032 C57.7467051,109.282032 62,113.535327 62,118.782032 C62,124.028737 57.7467051,128.282032 52.5,128.282032 C47.2532949,128.282032 43,124.028737 43,118.782032 C43,113.535327 47.2532949,109.282032 52.5,109.282032 Z" id="Rectangle" fill="color(display-p3 0.423 0.768 0.437)"></path>
            <path d="M46.5,10.2820323 C51.7467051,10.2820323 56,14.5353272 56,19.7820323 C56,25.0287374 51.7467051,29.2820323 46.5,29.2820323 C41.2532949,29.2820323 37,25.0287374 37,19.7820323 C37,14.5353272 41.2532949,10.2820323 46.5,10.2820323 Z" id="Rectangle" fill="color(display-p3 0.000 0.000 0.000)"></path>
        </g>
    </g>
</svg>